<?xml version="1.0" encoding="UTF-8"?>
<svg id="Layer_1" xmlns="http://www.w3.org/2000/svg" width="16" height="16" version="1.1" viewBox="0 0 16 16">
  <!-- Generator: Adobe Illustrator 29.0.0, SVG Export Plug-In . SVG Version: 2.1.0 Build 186)  -->
  <defs>
    <style>
      .st0 {
        fill: #fff;
      }
    </style>
  </defs>
  <path class="st0" d="M8,0h-3.3c-.9,0-1.4.2-1.9.4-.5.2-1,.5-1.4.9s-.7.9-.9,1.4-.3,1.1-.4,1.9v6.6c0,.9.2,1.4.4,1.9s.5,1,.9,1.4.9.7,1.4.9,1.1.3,1.9.4h6.6c.9,0,1.4-.2,1.9-.4s1-.5,1.4-.9.7-.9.9-1.4.3-1.1.4-1.9v-6.6c0-.9-.2-1.4-.4-1.9s-.5-1-.9-1.4-.9-.7-1.4-.9C12.7.2,12.1,0,11.3,0h-3.3ZM7.3,1.4h3.9c.8,0,1.2.2,1.5.3.4.1.6.3.9.6s.5.5.6.9c.1.3.2.7.3,1.5v6.4c0,.8-.2,1.2-.3,1.5s-.3.7-.6.9c-.3.3-.5.5-.9.6-.3.1-.7.2-1.5.3h-6.4c-.8,0-1.2-.2-1.5-.3s-.7-.3-.9-.6c-.3-.3-.5-.6-.6-.9-.1-.3-.2-.7-.3-1.5v-6.4c0-.8.2-1.2.3-1.5.1-.4.3-.6.6-.9s.5-.5.9-.6c.3-.1.7-.2,1.5-.3h2.5ZM12.3,2.8c-.5,0-1,.4-1,1s.4,1,1,1h0c.5,0,1-.4,1-1s-.4-1-1-1M8,3.9c-2.3,0-4.1,1.8-4.2,4,0,2.3,1.8,4.1,4,4.2h0c2.3,0,4.1-1.9,4-4.2,0-2.2-1.8-4-4-4M8,5.3c1.5,0,2.7,1.2,2.7,2.7s-1.2,2.7-2.7,2.7h0c-1.5,0-2.7-1.2-2.7-2.7s1.2-2.7,2.7-2.7"/>
</svg>