<?xml version="1.0" encoding="UTF-8"?>
<svg id="Layer_1" xmlns="http://www.w3.org/2000/svg" width="16" height="16" version="1.1" viewBox="0 0 16 16">
  <!-- Generator: Adobe Illustrator 29.0.0, SVG Export Plug-In . SVG Version: 2.1.0 Build 186)  -->
  <defs>
    <style>
      .st0 {
        fill: #fff;
      }
    </style>
  </defs>
  <path class="st0" d="M13.6,2.3c-1.5-1.5-3.5-2.3-5.6-2.3C3.6,0,0,3.6,0,7.9s.4,2.8,1.1,4l-1.1,4.1,4.2-1.1c1.2.6,2.5,1,3.8,1h0c4.4,0,7.9-3.6,7.9-7.9s-.8-4.1-2.3-5.6h0ZM8,14.5c-1.2,0-2.3-.3-3.4-.9h-.2c0-.1-2.5.5-2.5.5l.7-2.4-.2-.3c-.7-1-1-2.3-1-3.5,0-3.6,3-6.6,6.6-6.6s3.4.7,4.7,1.9c1.2,1.2,1.9,2.9,1.9,4.7,0,3.6-3,6.6-6.6,6.6M11.6,9.6c-.2,0-1.2-.6-1.4-.6h-.4c-.1.2-.5.6-.6.8-.1.1-.2.1-.4,0s-.8-.3-1.6-1c-.6-.5-1-1.2-1.1-1.4,0-.2,0-.3,0-.4l.3-.3c0,0,0-.2.2-.3v-.3s-.4-1.1-.6-1.5-.3-.3-.4-.3h-.4c-.2,0-.4,0-.5.2-.2.2-.7.7-.7,1.7s.7,1.9.8,2c0,.1,1.4,2.1,3.4,3,.5.2.8.3,1.1.4.5.2.9.1,1.2,0,.4,0,1.2-.5,1.3-.9.2-.5.2-.9.1-.9,0,0-.2-.1-.4-.2"/>
</svg>