<?xml version="1.0" encoding="UTF-8"?>
<svg id="Layer_1" xmlns="http://www.w3.org/2000/svg" width="16" height="16" version="1.1" viewBox="0 0 16 16">
  <!-- Generator: Adobe Illustrator 29.0.0, SVG Export Plug-In . SVG Version: 2.1.0 Build 186)  -->
  <defs>
    <style>
      .st0 {
        fill: #fff;
      }
    </style>
  </defs>
  <path class="st0" d="M8.1,2h0c.8,0,5,0,6.1.3.7.2,1.2.7,1.4,1.4.1.4.2.9.2,1.4h0v.4h0v2.1h0v2.1h0v.2c0,.6-.1,1.1-.2,1.6-.2.7-.7,1.2-1.4,1.4-1.2.3-5.6.3-6.2.3h-3.6c-1.1,0-2.2-.1-2.7-.3-.7-.2-1.2-.7-1.4-1.4,0-.4-.2-1-.2-1.6H.1v-2.2H.1v-1.9H.1v-.2H.1v-.4H.1c0-.6.1-1.1.2-1.5.2-.7.7-1.2,1.4-1.4.5,0,1.5-.2,2.7-.3h3.5s.2,0,.2,0ZM6.4,5.2v4.8l4.2-2.4s-4.2-2.4-4.2-2.4Z"/>
</svg>