<?xml version="1.0" encoding="UTF-8"?>
<svg id="Layer_1" xmlns="http://www.w3.org/2000/svg" width="640" height="640" version="1.1" viewBox="0 0 640 640">
  <!-- Generator: Adobe Illustrator 29.0.0, SVG Export Plug-In . SVG Version: 2.1.0 Build 186)  -->
  <defs>
    <style>
      .st0 {
        fill="currentColor"
      }
    </style>
  </defs>
  <path class="st0" d="M112,128c-26.5,0-48,21.5-48,48s7.1,29.3,19.2,38.4l208,156c17.1,12.8,40.5,12.8,57.6,0l208-156c12.1-9.1,19.2-23.3,19.2-38.4,0-26.5-21.5-48-48-48H112ZM64,260v188c0,35.3,28.7,64,64,64h384c35.3,0,64-28.7,64-64v-188l-198.4,148.8c-34.1,25.6-81.1,25.6-115.2,0l-198.4-148.8Z"/>
</svg>
