<?xml version="1.0" encoding="UTF-8"?>
<svg id="Layer_1" xmlns="http://www.w3.org/2000/svg" width="640" height="640" version="1.1" viewBox="0 0 640 640">
  <!-- Generator: Adobe Illustrator 29.0.0, SVG Export Plug-In . SVG Version: 2.1.0 Build 186)  -->
  <defs>
    <style>
      .st0 {
        fill: #374151;
      }
    </style>
  </defs>
  <path class="st0" d="M320,10h-129.5c-35.3,0-54.9,7.8-74.6,15.7-19.6,7.8-39.2,19.6-54.9,35.3s-27.5,35.3-35.3,54.9c-7.8,19.6-11.8,43.2-15.7,74.6v259c0,35.3,7.8,54.9,15.7,74.6,7.8,19.6,19.6,39.2,35.3,54.9,15.7,15.7,35.3,27.5,54.9,35.3,19.6,7.8,43.2,11.8,74.6,15.7h259c35.3,0,54.9-7.8,74.6-15.7,19.6-7.8,39.2-19.6,54.9-35.3,15.7-15.7,27.5-35.3,35.3-54.9,7.8-19.6,11.8-43.2,15.7-74.6V190.5c0-35.3-7.8-54.9-15.7-74.6-7.8-19.6-19.6-39.2-35.3-54.9-15.7-15.7-35.3-27.5-54.9-35.3-19.6-7.8-43.2-11.8-74.6-15.7h-129.5ZM292.5,64.9h153c31.4,0,47.1,7.8,58.9,11.8,15.7,3.9,23.5,11.8,35.3,23.5,11.8,11.8,19.6,19.6,23.5,35.3,3.9,11.8,7.8,27.5,11.8,58.9v251.1c0,31.4-7.8,47.1-11.8,58.9s-11.8,27.5-23.5,35.3c-11.8,11.8-19.6,19.6-35.3,23.5-11.8,3.9-27.5,7.8-58.9,11.8h-251.1c-31.4,0-47.1-7.8-58.9-11.8s-27.5-11.8-35.3-23.5c-11.8-11.8-19.6-23.5-23.5-35.3-3.9-11.8-7.8-27.5-11.8-58.9v-251.1c0-31.4,7.8-47.1,11.8-58.9,3.9-15.7,11.8-23.5,23.5-35.3,11.8-11.8,19.6-19.6,35.3-23.5,11.8-3.9,27.5-7.8,58.9-11.8h98.1ZM488.7,119.9c-19.6,0-39.2,15.7-39.2,39.2s15.7,39.2,39.2,39.2h0c19.6,0,39.2-15.7,39.2-39.2s-15.7-39.2-39.2-39.2M320,163c-90.3,0-160.9,70.6-164.8,157,0,90.3,70.6,160.9,157,164.8h3.9c90.3,0,160.9-74.6,157-164.8,0-86.3-70.6-157-157-157M320,218c58.9,0,105.9,47.1,105.9,105.9s-47.1,105.9-105.9,105.9h0c-58.9,0-105.9-47.1-105.9-105.9s47.1-105.9,105.9-105.9"/>
</svg>