<?xml version="1.0" encoding="UTF-8"?>
<svg id="Layer_1" xmlns="http://www.w3.org/2000/svg" width="16" height="16" version="1.1" viewBox="0 0 16 16">
  <!-- Generator: Adobe Illustrator 29.0.0, SVG Export Plug-In . SVG Version: 2.1.0 Build 186)  -->
  <defs>
    <style>
      .st0 {
        fill: #374151;
      }
    </style>
  </defs>
  <path class="st0" d="M8,0c-2.2,0-2.4,0-3.3,0-.9,0-1.4.2-1.9.4-.5.2-1,.5-1.4.9-.4.4-.7.9-.9,1.4-.2.5-.3,1.1-.4,1.9,0,.9,0,1.1,0,3.3s0,2.4,0,3.3c0,.9.2,1.4.4,1.9.2.5.5,1,.9,1.4.4.4.9.7,1.4.9.5.2,1.1.3,1.9.4.9,0,1.1,0,3.3,0s2.4,0,3.3,0c.9,0,1.4-.2,1.9-.4.5-.2,1-.5,1.4-.9.4-.4.7-.9.9-1.4.2-.5.3-1.1.4-1.9,0-.9,0-1.1,0-3.3s0-2.4,0-3.3c0-.9-.2-1.4-.4-1.9-.2-.5-.5-1-.9-1.4-.4-.4-.9-.7-1.4-.9-.5-.2-1.1-.3-1.9-.4-.9,0-1.1,0-3.3,0h0ZM7.3,1.4h.7c2.1,0,2.4,0,3.2,0,.8,0,1.2.2,1.5.3.4.1.6.3.9.6s.5.5.6.9c.1.3.2.7.3,1.5,0,.8,0,1.1,0,3.2s0,2.4,0,3.2c0,.8-.2,1.2-.3,1.5-.1.3-.3.7-.6.9-.3.3-.5.5-.9.6-.3.1-.7.2-1.5.3-.8,0-1.1,0-3.2,0s-2.4,0-3.2,0c-.8,0-1.2-.2-1.5-.3-.3-.1-.7-.3-.9-.6-.3-.3-.5-.6-.6-.9-.1-.3-.2-.7-.3-1.5,0-.8,0-1.1,0-3.2s0-2.4,0-3.2c0-.8.2-1.2.3-1.5.1-.4.3-.6.6-.9s.5-.5.9-.6c.3-.1.7-.2,1.5-.3.7,0,1,0,2.5,0h0ZM12.3,2.8c-.5,0-1,.4-1,1s.4,1,1,1h0c.5,0,1-.4,1-1s-.4-1-1-1M8,3.9c-2.3,0-4.1,1.8-4.2,4,0,2.3,1.8,4.1,4,4.2,0,0,0,0,.1,0,2.3,0,4.1-1.9,4-4.2,0-2.2-1.8-4-4-4M8,5.3c1.5,0,2.7,1.2,2.7,2.7s-1.2,2.7-2.7,2.7h0c-1.5,0-2.7-1.2-2.7-2.7s1.2-2.7,2.7-2.7"/>
</svg>