<?xml version="1.0" encoding="UTF-8"?>
<svg id="Layer_1" xmlns="http://www.w3.org/2000/svg" width="640" height="640" version="1.1" viewBox="0 0 640 640">
  <!-- Generator: Adobe Illustrator 29.0.0, SVG Export Plug-In . SVG Version: 2.1.0 Build 186)  -->
  <defs>
    <style>
      .st0 {
        fill: #374151;
      }
    </style>
  </defs>
  <path class="st0" d="M10,54.6c0-23.3,19.4-42.6,46.5-42.6h527c23.3,0,46.5,19.4,46.5,42.6v530.9c0,23.3-19.4,42.6-46.5,42.6H56.5c-23.3,0-46.5-19.4-46.5-42.6V54.6ZM199.9,531.2V252.2h-93v279h93ZM153.4,213.4c31,0,54.2-23.2,54.2-46.5s-19.4-46.5-50.4-46.5-54.2,19.4-54.2,46.5,19.4,46.5,50.4,46.5h0ZM347.1,531.2v-178.3c7.7-15.5,23.3-34.9,46.5-34.9s46.5,27.1,46.5,62v151.1h93v-158.9c0-85.2-46.5-127.9-108.5-127.9s-69.8,27.1-85.2,46.5h0v-38.8h-93v279h100.7Z"/>
</svg>