<?xml version="1.0" encoding="UTF-8"?>
<svg id="Layer_1" xmlns="http://www.w3.org/2000/svg" width="640" height="640" version="1.1" viewBox="0 0 640 640">
  <!-- Generator: Adobe Illustrator 29.0.0, SVG Export Plug-In . SVG Version: 2.1.0 Build 186)  -->
  <defs>
    <style>
      .st0 {
        fill: #374151;
      }
    </style>
  </defs>
  <path class="st0" d="M540.3,97.7C481.8,39.2,403.8,8.1,321.9,8.1,150.4,8.1,10,148.4,10,316.1s15.6,109.2,42.9,156l-42.9,159.9,163.8-42.9c46.8,23.4,97.5,39,148.2,39h0c171.6,0,308.1-140.4,308.1-308.1s-31.2-159.9-89.7-218.4h0v-3.9ZM321.9,573.5c-46.8,0-89.7-11.7-132.6-35.1h-7.8c0-3.9-97.5,19.5-97.5,19.5l27.3-93.6-7.8-11.7c-27.3-39-39-89.7-39-136.5,0-140.4,117-257.4,257.4-257.4s132.6,27.3,183.3,74.1c46.8,46.8,74.1,113.1,74.1,183.3,0,140.4-117,257.4-257.4,257.4M462.3,382.4c-7.8,0-46.8-23.4-54.6-23.4h-15.6c-3.9,7.8-19.5,23.4-23.4,31.2-3.9,3.9-7.8,3.9-15.6,0s-31.2-11.7-62.4-39c-23.4-19.5-39-46.8-42.9-54.6-3.9-7.8,0-11.7,0-15.6l11.7-11.7c0-3.9,3.9-7.8,7.8-11.7v-11.7s-15.6-42.9-23.4-58.5c-7.8-15.6-11.7-11.7-15.6-11.7h-15.6c-7.8,0-15.6,0-19.5,7.8-7.8,7.8-27.3,27.3-27.3,66.3s27.3,74.1,31.2,78c0,3.9,54.6,81.9,132.6,117,19.5,7.8,31.2,11.7,42.9,15.6,19.5,7.8,35.1,3.9,46.8,0,15.6,0,46.8-19.5,50.7-35.1,7.8-19.5,7.8-35.1,3.9-35.1,0,0-7.8-3.9-15.6-7.8"/>
</svg>