<?xml version="1.0" encoding="UTF-8"?>
<svg id="Layer_1" xmlns="http://www.w3.org/2000/svg" width="640" height="640" version="1.1" viewBox="0 0 640 640">
  <!-- Generator: Adobe Illustrator 29.0.0, SVG Export Plug-In . SVG Version: 2.1.0 Build 186)  -->
  <defs>
    <style>
      .st0 {
        fill: #374151;
      }
    </style>
  </defs>
  <path class="st0" d="M325.9,98.9h0c31.6,0,197.5,0,240.9,11.8,27.6,7.9,47.4,27.6,55.3,55.3,3.9,15.8,7.9,35.5,7.9,55.3h0v15.8h0v82.9h0v82.9h0v7.9c0,23.7-3.9,43.4-7.9,63.2-7.9,27.6-27.6,47.4-55.3,55.3-47.4,11.8-221.1,11.8-244.8,11.8h-142.2c-43.4,0-86.9-3.9-106.6-11.8-27.6-7.9-47.4-27.6-55.3-55.3-3.9-15.8-7.9-39.5-7.9-63.2h0v-86.9h0v-75h0v-7.9h0v-15.8h0c0-23.7,3.9-43.4,7.9-59.2,7.9-27.6,27.6-47.4,55.3-55.3,19.7-3.9,59.2-7.9,106.6-11.8h138.2s7.9,0,7.9,0ZM258.8,225.2v189.6l165.9-94.8s-165.9-94.8-165.9-94.8Z"/>
</svg>