<?xml version="1.0" encoding="UTF-8"?>
<svg id="Layer_1" xmlns="http://www.w3.org/2000/svg" width="16" height="16" version="1.1" viewBox="0 0 16 16">
  <!-- Generator: Adobe Illustrator 29.0.0, SVG Export Plug-In . SVG Version: 2.1.0 Build 186)  -->
  <defs>
    <style>
      .st0 {
        fill: #374151;
      }
    </style>
  </defs>
  <path class="st0" d="M8.1,2h0c.8,0,5,0,6.1.3.7.2,1.2.7,1.4,1.4.1.4.2.9.2,1.4h0c0,.1,0,.4,0,.4h0c0,1,0,1.9,0,2.1h0c0,.3,0,1.2,0,2.1h0c0,.1,0,.2,0,.2,0,.6-.1,1.1-.2,1.6-.2.7-.7,1.2-1.4,1.4-1.2.3-5.6.3-6.2.3h-.1c-.3,0-1.6,0-2.9,0h-.2s0,0,0,0h-.2s-.2,0-.2,0c-1.1,0-2.2-.1-2.7-.3-.7-.2-1.2-.7-1.4-1.4-.1-.4-.2-1-.2-1.6h0c0-.1,0-.2,0-.2,0-.7,0-1.4,0-2h0c0-.3,0-1.1,0-1.9h0c0-.1,0-.2,0-.2h0c0-.1,0-.4,0-.4h0c0-.6.1-1.1.2-1.5.2-.7.7-1.2,1.4-1.4.5-.1,1.5-.2,2.7-.3h.2s.2,0,.2,0h0s.2,0,.2,0c1,0,1.9,0,2.9,0h.2ZM6.4,5.2v4.8l4.2-2.4-4.2-2.4Z"/>
</svg>